<svg width="16" height="17" viewBox="0 0 16 17" fill="none" xmlns="http://www.w3.org/2000/svg">
<path d="M1.33325 8.49967C1.33325 5.35698 1.33325 3.78563 2.30956 2.80932C3.28587 1.83301 4.85722 1.83301 7.99992 1.83301C11.1426 1.83301 12.714 1.83301 13.6903 2.80932C14.6666 3.78563 14.6666 5.35698 14.6666 8.49967C14.6666 11.6424 14.6666 13.2137 13.6903 14.19C12.714 15.1663 11.1426 15.1663 7.99992 15.1663C4.85722 15.1663 3.28587 15.1663 2.30956 14.19C1.33325 13.2137 1.33325 11.6424 1.33325 8.49967Z" stroke="#FFFFFF"/>
<path d="M10 8.50002L8 8.50002M8 8.50002L6 8.50002M8 8.50002L8 6.5M8 8.50002L8 10.5" stroke="#FFFFFF" stroke-linecap="round"/>
</svg>
