<svg width="19" height="19" viewBox="0 0 19 19" fill="none" xmlns="http://www.w3.org/2000/svg">
<path fill-rule="evenodd" clip-rule="evenodd" d="M2.56394 5.45385C2.40047 5.07375 1.95995 4.8978 1.57953 5.06084C1.1988 5.224 1.02271 5.66554 1.18588 6.04626L1.1862 6.04701L1.187 6.04888L1.18925 6.05404L1.19629 6.07C1.20212 6.08311 1.21023 6.1011 1.22064 6.12365C1.24147 6.16874 1.27155 6.23213 1.31108 6.31119C1.39009 6.46921 1.5072 6.69054 1.66409 6.95412C1.97079 7.46937 2.43397 8.15359 3.06772 8.84341L2.46964 9.44149C2.17674 9.73439 2.17674 10.2093 2.46964 10.5022C2.76253 10.795 3.2374 10.795 3.5303 10.5022L4.1606 9.87185C4.58434 10.214 5.05804 10.5364 5.58313 10.8143L4.99633 11.7162C4.77042 12.0633 4.86874 12.5279 5.21593 12.7538C5.56311 12.9797 6.0277 12.8814 6.2536 12.5342L6.99251 11.3986C7.50011 11.5543 8.04398 11.6652 8.62497 11.7171V12.8752C8.62497 13.2894 8.96075 13.6252 9.37497 13.6252V10.2502C7.3142 10.2502 5.76076 9.35124 4.64725 8.30857C4.64117 8.30266 4.63502 8.29689 4.62879 8.29123C4.47993 8.15101 4.33899 8.00828 4.20581 7.86486C3.64079 7.25637 3.22603 6.64553 2.95303 6.18689C2.81695 5.95828 2.71727 5.76946 2.65272 5.64037C2.62047 5.57588 2.59709 5.52647 2.58239 5.49465C2.57504 5.47875 2.56988 5.46726 2.56687 5.4605L2.56394 5.45385ZM1.18588 6.04626L1.87497 5.75019C1.18561 6.04563 1.18588 6.04626 1.18588 6.04626Z" fill="#5F7392"/>
<path opacity="0.5" d="M11.7907 9.79879C11.0838 10.077 10.2817 10.2501 9.375 10.2501V13.6251C9.78921 13.6251 10.125 13.2894 10.125 12.8751V11.7169C10.704 11.665 11.248 11.5544 11.7573 11.3983L12.4964 12.5342C12.7223 12.8814 13.1869 12.9797 13.534 12.7538C13.8812 12.5279 13.9795 12.0633 13.7536 11.7161L13.1669 10.8143C13.6927 10.5362 14.1663 10.2138 14.5895 9.87197L15.2197 10.5021C15.5126 10.795 15.9874 10.795 16.2803 10.5021C16.5732 10.2092 16.5732 9.73434 16.2803 9.44144L15.6822 8.84336C16.2391 8.23729 16.6636 7.63627 16.9655 7.15165C17.163 6.8347 17.3099 6.56456 17.4087 6.37095C17.4581 6.27405 17.4956 6.19607 17.5214 6.14068C17.5343 6.11297 17.5443 6.0909 17.5515 6.0749L17.5601 6.05552L17.5627 6.04935L17.5644 6.04558C17.7275 5.66486 17.5512 5.22395 17.1704 5.06079C16.7898 4.89766 16.3489 5.07419 16.1856 5.45471L16.1819 5.4631C16.178 5.47195 16.1713 5.48668 16.1619 5.50685C16.1431 5.54721 16.1133 5.60926 16.0724 5.68946C15.9905 5.85003 15.8645 6.08233 15.6924 6.35839C15.3471 6.91267 14.8239 7.63143 14.1117 8.29992C13.4809 8.89199 12.7102 9.43686 11.7907 9.79879Z" fill="#5F7392"/>
</svg>
