<svg width="21" height="20" viewBox="0 0 21 20" fill="none" xmlns="http://www.w3.org/2000/svg">
<path d="M2.16602 10.0001C2.16602 6.07175 2.16602 4.10758 3.38602 2.88675C4.60768 1.66675 6.57102 1.66675 10.4993 1.66675C14.4277 1.66675 16.3918 1.66675 17.6118 2.88675C18.8327 4.10841 18.8327 6.07175 18.8327 10.0001C18.8327 13.9284 18.8327 15.8926 17.6118 17.1126C16.3927 18.3334 14.4277 18.3334 10.4993 18.3334C6.57102 18.3334 4.60685 18.3334 3.38602 17.1126C2.16602 15.8934 2.16602 13.9284 2.16602 10.0001Z" stroke="#CC7914" stroke-width="1.25"/>
<path d="M7.99902 7.0835L10.499 9.5835L12.999 7.0835M7.99902 10.4168L10.499 12.9168L12.999 10.4168" stroke="#CC7914" stroke-width="1.25" stroke-linecap="round" stroke-linejoin="round"/>
</svg>
