<svg width="20" height="20" viewBox="0 0 20 20" fill="none" xmlns="http://www.w3.org/2000/svg">
<path d="M1.66699 9.99984C1.66699 6.0715 1.66699 4.10734 2.88699 2.8865C4.10866 1.6665 6.07199 1.6665 10.0003 1.6665C13.9287 1.6665 15.8928 1.6665 17.1128 2.8865C18.3337 4.10817 18.3337 6.0715 18.3337 9.99984C18.3337 13.9282 18.3337 15.8923 17.1128 17.1123C15.8937 18.3332 13.9287 18.3332 10.0003 18.3332C6.07199 18.3332 4.10783 18.3332 2.88699 17.1123C1.66699 15.8932 1.66699 13.9282 1.66699 9.99984Z" stroke="#40444F" stroke-width="1.25"/>
<path d="M10 5.83301V11.6663M10 11.6663L12.5 9.16634M10 11.6663L7.5 9.16634" stroke="#40444F" stroke-width="1.25" stroke-linecap="round" stroke-linejoin="round"/>
<path d="M13.3337 14.1665H6.66699" stroke="#40444F" stroke-width="1.25" stroke-linecap="round"/>
</svg>
