<svg width="16" height="16" viewBox="0 0 16 16" fill="none" xmlns="http://www.w3.org/2000/svg">
<g clip-path="url(#clip0_742_1972)">
<path d="M10 7L8 9L6 7" stroke="#40444F" stroke-linecap="round" stroke-linejoin="round"/>
<path d="M1.3335 7.99967C1.3335 4.85698 1.3335 3.28563 2.30981 2.30932C3.28612 1.33301 4.85747 1.33301 8.00016 1.33301C11.1429 1.33301 12.7142 1.33301 13.6905 2.30932C14.6668 3.28563 14.6668 4.85698 14.6668 7.99967C14.6668 11.1424 14.6668 12.7137 13.6905 13.69C12.7142 14.6663 11.1429 14.6663 8.00016 14.6663C4.85747 14.6663 3.28612 14.6663 2.30981 13.69C1.3335 12.7137 1.3335 11.1424 1.3335 7.99967Z" stroke="#40444F"/>
</g>
<defs>
<clipPath id="clip0_742_1972">
<rect width="16" height="16" fill="white"/>
</clipPath>
</defs>
</svg>
