<svg width="20" height="20" viewBox="0 0 20 20" fill="none" xmlns="http://www.w3.org/2000/svg">
<path d="M18.3337 8.74984V9.99984C18.3337 13.9282 18.3337 15.8923 17.1128 17.1123C15.8937 18.3332 13.9287 18.3332 10.0003 18.3332C6.07199 18.3332 4.10783 18.3332 2.88699 17.1123C1.66699 15.8932 1.66699 13.9282 1.66699 9.99984C1.66699 6.0715 1.66699 4.10734 2.88699 2.8865C4.10866 1.6665 6.07199 1.6665 10.0003 1.6665H11.2503" stroke="#5F7392" stroke-width="1.25" stroke-linecap="round"/>
<path d="M13.8771 2.8791L14.4179 2.33827C14.8482 1.90807 15.4318 1.66643 16.0403 1.6665C16.6488 1.66658 17.2323 1.90837 17.6625 2.33869C18.0927 2.769 18.3343 3.35259 18.3342 3.96107C18.3342 4.56954 18.0924 5.15307 17.6621 5.58327L17.1204 6.1241C17.1204 6.1241 15.9721 6.0566 14.9587 5.04244C13.9446 4.0291 13.8771 2.87994 13.8771 2.87994L8.90623 7.84994C8.56957 8.1866 8.40123 8.35494 8.25623 8.54077C8.08512 8.76021 7.93957 8.99577 7.81957 9.24744C7.71873 9.45994 7.64373 9.68577 7.4929 10.1374L7.0104 11.5833M7.0104 11.5833L6.69873 12.5183C6.66208 12.6273 6.65657 12.7444 6.68283 12.8564C6.70909 12.9684 6.76607 13.0709 6.84738 13.1523C6.92868 13.2337 7.03108 13.2908 7.14305 13.3171C7.25503 13.3435 7.37215 13.3381 7.48123 13.3016L8.41707 12.9899M7.0104 11.5833L8.41707 12.9899M17.1212 6.12327L12.1504 11.0941C11.8137 11.4308 11.6454 11.5991 11.4596 11.7441C11.2405 11.9148 11.0036 12.0612 10.7529 12.1808C10.5404 12.2816 10.3146 12.3566 9.8629 12.5074L8.41707 12.9899" stroke="#5F7392" stroke-width="1.25"/>
</svg>
