<svg width="20" height="20" viewBox="0 0 20 20" fill="none" xmlns="http://www.w3.org/2000/svg">
<path d="M7.46844 15.7589L7.85536 15.2681L7.46844 15.7589ZM10.0003 4.58374L9.55002 5.01716C9.66784 5.13957 9.83042 5.20874 10.0003 5.20874C10.1702 5.20874 10.3328 5.13957 10.4506 5.01716L10.0003 4.58374ZM12.5322 15.7589L12.9191 16.2498L12.5322 15.7589ZM7.85536 15.2681C6.59232 14.2724 5.21122 13.3001 4.11556 12.0664C3.04134 10.8567 2.29199 9.44529 2.29199 7.61413H1.04199C1.04199 9.8354 1.96741 11.5299 3.18092 12.8964C4.37301 14.2387 5.89263 15.3126 7.08151 16.2498L7.85536 15.2681ZM2.29199 7.61413C2.29199 5.82174 3.3048 4.31865 4.68729 3.68671C6.03038 3.07277 7.83504 3.23536 9.55002 5.01716L10.4506 4.15032C8.41574 2.03615 6.05374 1.6877 4.16763 2.54984C2.32092 3.39398 1.04199 5.35407 1.04199 7.61413H2.29199ZM7.08151 16.2498C7.50837 16.5863 7.96661 16.9451 8.43101 17.2165C8.89521 17.4877 9.42499 17.7082 10.0003 17.7082V16.4582C9.74232 16.4582 9.43878 16.3576 9.06167 16.1372C8.68476 15.917 8.29372 15.6137 7.85536 15.2681L7.08151 16.2498ZM12.9191 16.2498C14.108 15.3126 15.6276 14.2387 16.8197 12.8964C18.0332 11.5299 18.9587 9.8354 18.9587 7.61413H17.7087C17.7087 9.44529 16.9593 10.8567 15.8851 12.0664C14.7894 13.3001 13.4083 14.2724 12.1453 15.2681L12.9191 16.2498ZM18.9587 7.61413C18.9587 5.35407 17.6797 3.39398 15.833 2.54984C13.9469 1.6877 11.5849 2.03615 9.55002 4.15032L10.4506 5.01716C12.1656 3.23536 13.9703 3.07277 15.3134 3.68671C16.6959 4.31865 17.7087 5.82174 17.7087 7.61413H18.9587ZM12.1453 15.2681C11.7069 15.6137 11.3159 15.917 10.939 16.1372C10.5619 16.3576 10.2583 16.4582 10.0003 16.4582V17.7082C10.5757 17.7082 11.1054 17.4877 11.5696 17.2165C12.034 16.9451 12.4923 16.5863 12.9191 16.2498L12.1453 15.2681Z" fill="#40444F"/>
</svg>
