<svg width="21" height="21" viewBox="0 0 21 21" fill="none" xmlns="http://www.w3.org/2000/svg">
<path fill-rule="evenodd" clip-rule="evenodd" d="M10.4528 1.54297H10.5478C12.472 1.54297 13.9795 1.54297 15.1562 1.7013C16.3595 1.86297 17.3095 2.2013 18.0553 2.9463C18.8012 3.69214 19.1387 4.64214 19.3003 5.8463C19.4587 7.02214 19.4587 8.52964 19.4587 10.4538V10.5013H19.4503C19.4587 10.9838 19.4587 11.5263 19.4587 12.1396V12.1963C19.4587 13.3388 19.4587 14.2355 19.4003 14.9555C19.3403 15.6888 19.2162 16.2946 18.9362 16.843C18.4768 17.7446 17.7437 18.4777 16.842 18.9371C16.2937 19.2171 15.6878 19.3413 14.9545 19.4005C14.2345 19.4596 13.3378 19.4596 12.1953 19.4596H8.80533C7.66283 19.4596 6.76616 19.4596 6.04616 19.4013C5.31283 19.3413 4.70699 19.2171 4.15866 18.9371C3.25698 18.4777 2.5239 17.7446 2.06449 16.843C1.78449 16.2946 1.66116 15.6888 1.60116 14.9555C1.54199 14.2355 1.54199 13.3388 1.54199 12.1963V12.1396C1.54199 11.5263 1.54199 10.9838 1.55033 10.5013H1.54199V10.4538C1.54199 8.52964 1.54199 7.02214 1.70033 5.84547C1.86199 4.64214 2.20033 3.69214 2.94533 2.9463C3.69116 2.20047 4.64116 1.86297 5.84533 1.7013C7.02116 1.54297 8.52866 1.54297 10.4528 1.54297ZM2.90199 6.3238C3.26802 5.94944 3.69244 5.63704 4.15866 5.3988C4.70699 5.1188 5.31283 4.99547 6.04616 4.93547C6.76616 4.8763 7.66283 4.8763 8.80533 4.8763H12.1953C13.3378 4.8763 14.2345 4.8763 14.9545 4.93464C15.6878 4.99547 16.2937 5.1188 16.842 5.3988C17.3082 5.63704 17.7326 5.94944 18.0987 6.3238C18.0879 6.22002 18.0757 6.1164 18.062 6.01297C17.9187 4.94714 17.6453 4.30464 17.1712 3.82964C16.6962 3.35547 16.0545 3.08297 14.9887 2.93964C13.9053 2.79464 12.482 2.79297 10.5003 2.79297C8.51866 2.79297 7.09533 2.79464 6.01199 2.93964C4.94616 3.08297 4.30366 3.3563 3.82866 3.83047C3.35449 4.30547 3.08199 4.94714 2.93866 6.01297C2.92533 6.11297 2.9131 6.21658 2.90199 6.3238ZM6.14783 6.1813C5.49199 6.23464 5.06866 6.33797 4.72616 6.51214C4.05945 6.85174 3.51743 7.39376 3.17783 8.06047C3.00283 8.40297 2.90033 8.8263 2.84699 9.48214C2.79283 10.1455 2.79199 10.9905 2.79199 12.168C2.79199 13.3455 2.79199 14.1905 2.84699 14.8538C2.90033 15.5096 3.00366 15.933 3.17783 16.2763C3.51757 16.9427 4.05958 17.4844 4.72616 17.8238C5.06866 17.9988 5.49199 18.1013 6.14783 18.1546C6.81116 18.2088 7.65616 18.2096 8.83366 18.2096H12.167C13.3437 18.2096 14.1895 18.2096 14.8528 18.1546C15.5087 18.1013 15.932 17.998 16.2753 17.8238C16.9416 17.4843 17.4833 16.9426 17.8228 16.2763C17.9978 15.933 18.1003 15.5096 18.1537 14.8538C18.2078 14.1905 18.2087 13.3455 18.2087 12.168C18.2087 10.9905 18.2087 10.1455 18.1537 9.48214C18.1003 8.8263 17.997 8.40297 17.8228 8.06047C17.4834 7.39389 16.9417 6.85188 16.2753 6.51214C15.932 6.33713 15.5087 6.23464 14.8528 6.1813C14.1895 6.12714 13.3445 6.1263 12.167 6.1263H8.83366C7.65616 6.1263 6.81116 6.1263 6.14783 6.1813ZM13.0003 10.0346C13.1237 10.145 13.1983 10.2998 13.2077 10.4651C13.2171 10.6304 13.1605 10.7927 13.0503 10.9163L10.0737 14.2496C10.015 14.3153 9.94319 14.3679 9.86284 14.4038C9.78249 14.4398 9.69545 14.4584 9.60741 14.4584C9.51937 14.4584 9.43233 14.4398 9.35198 14.4038C9.27163 14.3679 9.19979 14.3153 9.14116 14.2496L7.95116 12.9163C7.89239 12.8558 7.84645 12.7841 7.81612 12.7055C7.78579 12.6268 7.77169 12.5428 7.77468 12.4585C7.77766 12.3743 7.79766 12.2915 7.83347 12.2152C7.86929 12.1388 7.92018 12.0705 7.98308 12.0144C8.04598 11.9582 8.11959 11.9154 8.19947 11.8884C8.27936 11.8615 8.36388 11.851 8.44794 11.8575C8.532 11.8641 8.61386 11.8876 8.6886 11.9266C8.76334 11.9657 8.8294 12.0194 8.88283 12.0846L9.60783 12.8955L12.117 10.0846C12.2274 9.96122 12.3822 9.88664 12.5475 9.87727C12.7128 9.8679 12.875 9.92449 12.9987 10.0346" fill="#FDFEFE"/>
</svg>
