<svg width="21" height="21" viewBox="0 0 21 21" fill="none" xmlns="http://www.w3.org/2000/svg">
<path fill-rule="evenodd" clip-rule="evenodd" d="M20.1 10.7271C20.1 10.018 20.0364 9.33619 19.9182 8.68164H10.5V12.5498H15.8818C15.65 13.7998 14.9455 14.8589 13.8864 15.568V18.0771H17.1182C19.0091 16.3362 20.1 13.7725 20.1 10.7271Z" fill="#4285F4"/>
<path fill-rule="evenodd" clip-rule="evenodd" d="M10.4998 20.4984C13.1998 20.4984 15.4635 19.603 17.118 18.0757L13.8862 15.5666C12.9907 16.1666 11.8453 16.5212 10.4998 16.5212C7.89529 16.5212 5.69075 14.7621 4.90439 12.3984H1.56348V14.9893C3.20893 18.2575 6.59075 20.4984 10.4998 20.4984Z" fill="#34A853"/>
<path fill-rule="evenodd" clip-rule="evenodd" d="M4.90455 12.4007C4.70455 11.8007 4.59091 11.1598 4.59091 10.5007C4.59091 9.84158 4.70455 9.20067 4.90455 8.60067V6.00977H1.56364C0.886364 7.35977 0.5 8.88704 0.5 10.5007C0.5 12.1143 0.886364 13.6416 1.56364 14.9916L4.90455 12.4007Z" fill="#FBBC05"/>
<path fill-rule="evenodd" clip-rule="evenodd" d="M10.5001 4.47727C11.9683 4.47727 13.2864 4.98182 14.3228 5.97273L17.191 3.10455C15.4592 1.49091 13.1955 0.5 10.5001 0.5C6.59099 0.5 3.20918 2.74091 1.56372 6.00909L4.90463 8.6C5.69099 6.23636 7.89554 4.47727 10.5001 4.47727Z" fill="#EA4335"/>
</svg>
