<svg width="20" height="20" viewBox="0 0 20 20" fill="none" xmlns="http://www.w3.org/2000/svg">
<g id="solar:check-circle-bold">
<path id="Vector" fill-rule="evenodd" clip-rule="evenodd" d="M18.3337 10.0003C18.3337 14.6028 14.6028 18.3337 10.0003 18.3337C5.39783 18.3337 1.66699 14.6028 1.66699 10.0003C1.66699 5.39783 5.39783 1.66699 10.0003 1.66699C14.6028 1.66699 18.3337 5.39783 18.3337 10.0003ZM13.3587 7.47533C13.4757 7.59251 13.5414 7.75137 13.5414 7.91699C13.5414 8.08262 13.4757 8.24147 13.3587 8.35866L9.19199 12.5253C9.0748 12.6424 8.91595 12.7081 8.75033 12.7081C8.5847 12.7081 8.42585 12.6424 8.30866 12.5253L6.64199 10.8587C6.58059 10.8014 6.53133 10.7324 6.49717 10.6558C6.46301 10.5791 6.44465 10.4963 6.44317 10.4124C6.44169 10.3285 6.45712 10.2452 6.48856 10.1673C6.51999 10.0895 6.56678 10.0188 6.62613 9.95946C6.68548 9.90011 6.75617 9.85332 6.83399 9.82189C6.91182 9.79046 6.99517 9.77502 7.07909 9.7765C7.16301 9.77798 7.24577 9.79635 7.32244 9.83051C7.39911 9.86467 7.46811 9.91392 7.52533 9.97533L8.75033 11.2003L10.6128 9.33783L12.4753 7.47533C12.5925 7.35828 12.7514 7.29254 12.917 7.29254C13.0826 7.29254 13.2415 7.35828 13.3587 7.47533Z" fill="#15B097"/>
</g>
</svg>
