<svg
                                width="16"
                                height="17"
                                viewBox="0 0 16 17"
                                fill="none"
                                xmlns="http://www.w3.org/2000/svg"
                            >
                                <path
                                    d="M5.97465 13.1077L6.28419 12.7151L5.97465 13.1077ZM8.00016 4.16758L7.63992 4.51431C7.73418 4.61224 7.86424 4.66758 8.00016 4.66758C8.13609 4.66758 8.26615 4.61224 8.36041 4.51431L8.00016 4.16758ZM10.0257 13.1077L10.3352 13.5004L10.0257 13.1077ZM6.28419 12.7151C5.27376 11.9185 4.16887 11.1407 3.29235 10.1537C2.43297 9.18598 1.8335 8.05682 1.8335 6.59189H0.833496C0.833496 8.36891 1.57383 9.72452 2.54464 10.8177C3.49831 11.8916 4.71401 12.7506 5.66511 13.5004L6.28419 12.7151ZM1.8335 6.59189C1.8335 5.15798 2.64374 3.9555 3.74973 3.44995C4.82421 2.95881 6.26794 3.08887 7.63992 4.51431L8.36041 3.82084C6.7325 2.1295 4.84289 1.85075 3.334 2.54046C1.85664 3.21577 0.833496 4.78384 0.833496 6.59189H1.8335ZM5.66511 13.5004C6.0066 13.7696 6.37319 14.0567 6.74471 14.2738C7.11607 14.4908 7.5399 14.6672 8.00016 14.6672V13.6672C7.79376 13.6672 7.55092 13.5867 7.24924 13.4104C6.94771 13.2342 6.63488 12.9915 6.28419 12.7151L5.66511 13.5004ZM10.3352 13.5004C11.2863 12.7506 12.502 11.8916 13.4557 10.8177C14.4265 9.72452 15.1668 8.36891 15.1668 6.59189H14.1668C14.1668 8.05682 13.5674 9.18598 12.708 10.1537C11.8315 11.1407 10.7266 11.9185 9.71613 12.7151L10.3352 13.5004ZM15.1668 6.59189C15.1668 4.78384 14.1437 3.21577 12.6663 2.54046C11.1574 1.85075 9.26783 2.1295 7.63992 3.82084L8.36041 4.51431C9.73239 3.08887 11.1761 2.95881 12.2506 3.44995C13.3566 3.9555 14.1668 5.15798 14.1668 6.59189H15.1668ZM9.71613 12.7151C9.36544 12.9915 9.05262 13.2342 8.75109 13.4104C8.4494 13.5867 8.20656 13.6672 8.00016 13.6672V14.6672C8.46043 14.6672 8.88426 14.4908 9.25561 14.2738C9.62713 14.0567 9.99373 13.7696 10.3352 13.5004L9.71613 12.7151Z"
                                    fill="#40444F"
                                />
                            </svg>