<svg width="21" height="21" viewBox="0 0 21 21" fill="none" xmlns="http://www.w3.org/2000/svg">
<path d="M13.4417 10.941C13.5587 10.8238 13.6244 10.6649 13.6244 10.4993C13.6244 10.3337 13.5587 10.1748 13.4417 10.0576L11.3583 7.97431C11.3011 7.91291 11.2321 7.86366 11.1554 7.8295C11.0788 7.79534 10.996 7.77697 10.9121 7.77549C10.8282 7.77401 10.7448 7.78944 10.667 7.82088C10.5892 7.85231 10.5185 7.8991 10.4591 7.95845C10.3998 8.0178 10.353 8.08849 10.3216 8.16632C10.2901 8.24414 10.2747 8.3275 10.2762 8.41142C10.2777 8.49534 10.296 8.5781 10.3302 8.65476C10.3643 8.73143 10.4136 8.80043 10.475 8.85765L11.4917 9.87431H5.5C5.33424 9.87431 5.17527 9.94016 5.05806 10.0574C4.94085 10.1746 4.875 10.3336 4.875 10.4993C4.875 10.6651 4.94085 10.824 5.05806 10.9413C5.17527 11.0585 5.33424 11.1243 5.5 11.1243H11.4917L10.475 12.141C10.4136 12.1982 10.3643 12.2672 10.3302 12.3439C10.296 12.4205 10.2777 12.5033 10.2762 12.5872C10.2747 12.6711 10.2901 12.7545 10.3216 12.8323C10.353 12.9101 10.3998 12.9808 10.4591 13.0402C10.5185 13.0995 10.5892 13.1463 10.667 13.1778C10.7448 13.2092 10.8282 13.2246 10.9121 13.2231C10.996 13.2217 11.0788 13.2033 11.1554 13.1691C11.2321 13.135 11.3011 13.0857 11.3583 13.0243L13.4417 10.941Z" fill="#FDFEFE"/>
<path fill-rule="evenodd" clip-rule="evenodd" d="M12.1208 1.54102H13.0458C14.185 1.54102 15.1042 1.54102 15.8267 1.63852C16.5767 1.73852 17.2083 1.95518 17.71 2.45602C18.2117 2.95768 18.4267 3.58935 18.5283 4.33935C18.625 5.06185 18.625 5.98102 18.625 7.12018V13.8785C18.625 15.0177 18.625 15.9368 18.5283 16.6593C18.4267 17.4093 18.2117 18.041 17.71 18.5427C17.2083 19.0443 16.5767 19.2593 15.8267 19.361C15.1042 19.4577 14.185 19.4577 13.0458 19.4577H12.1208C10.9817 19.4577 10.0625 19.4577 9.34 19.361C8.59 19.2593 7.95833 19.0443 7.45667 18.5427C7.12333 18.2093 6.91667 17.8185 6.78583 17.3743C5.99333 17.3735 5.3325 17.3643 4.7975 17.2927C4.16083 17.2068 3.60917 17.0218 3.16833 16.581C2.7275 16.1402 2.5425 15.5893 2.45667 14.9518C2.375 14.3435 2.375 13.5718 2.375 12.6268V8.37185C2.375 7.42768 2.375 6.65685 2.45667 6.04685C2.5425 5.41102 2.7275 4.85935 3.16833 4.41852C3.60917 3.97768 4.16 3.79268 4.7975 3.70685C5.3325 3.63518 5.99333 3.62602 6.78583 3.62518C6.91667 3.18102 7.12417 2.79018 7.45667 2.45685C7.95833 1.95518 8.59 1.74018 9.34 1.63935C10.0625 1.54185 10.9817 1.54185 12.1208 1.54185M6.54167 13.8785C6.54167 14.7535 6.54167 15.4977 6.58583 16.1235C5.89 16.121 5.37333 16.1085 4.96417 16.0535C4.46583 15.9868 4.2225 15.8668 4.0525 15.6968C3.8825 15.5268 3.7625 15.2835 3.69583 14.7852C3.62667 14.2693 3.625 13.5827 3.625 12.5827V8.41602C3.625 7.41602 3.62667 6.72935 3.69583 6.21352C3.7625 5.71518 3.8825 5.47185 4.0525 5.30185C4.2225 5.13185 4.46583 5.01185 4.96417 4.94518C5.37333 4.89018 5.89 4.87852 6.58583 4.87518C6.54167 5.49935 6.54167 6.24518 6.54167 7.12018V7.16602C6.54167 7.33178 6.60751 7.49075 6.72472 7.60796C6.84194 7.72517 7.00091 7.79102 7.16667 7.79102C7.33243 7.79102 7.4914 7.72517 7.60861 7.60796C7.72582 7.49075 7.79167 7.33178 7.79167 7.16602C7.79167 5.97018 7.79333 5.13518 7.8775 4.50602C7.96 3.89435 8.11083 3.57102 8.34083 3.34018C8.57167 3.10935 8.895 2.95935 9.5075 2.87685C10.1367 2.79268 10.9708 2.79102 12.1667 2.79102H13C14.1958 2.79102 15.03 2.79268 15.66 2.87685C16.2717 2.95935 16.595 3.11018 16.8258 3.34018C17.0567 3.57102 17.2067 3.89435 17.2892 4.50685C17.3733 5.13518 17.375 5.97018 17.375 7.16602V13.8327C17.375 15.0285 17.3733 15.8627 17.2892 16.4927C17.2067 17.1043 17.0558 17.4277 16.8258 17.6585C16.595 17.8893 16.2717 18.0393 15.6592 18.1218C15.03 18.206 14.1958 18.2077 13 18.2077H12.1667C10.9708 18.2077 10.1358 18.206 9.50667 18.1218C8.895 18.0393 8.57167 17.8885 8.34083 17.6585C8.11 17.4277 7.96 17.1043 7.8775 16.4918C7.79333 15.8627 7.79167 15.0285 7.79167 13.8327C7.79167 13.6669 7.72582 13.508 7.60861 13.3907C7.4914 13.2735 7.33243 13.2077 7.16667 13.2077C7.00091 13.2077 6.84194 13.2735 6.72472 13.3907C6.60751 13.508 6.54167 13.6669 6.54167 13.8327V13.8785Z" fill="#FDFEFE"/>
</svg>
