<?xml version="1.0" encoding="UTF-8" standalone="no"?>
<svg
   width="7.1111102in"
   height="7.1111102in"
   viewBox="0 0 512 512"
   version="1.1"
   id="svg1"
   xmlns="http://www.w3.org/2000/svg"
   xmlns:svg="http://www.w3.org/2000/svg">
  <defs
     id="defs1" />
  <g
     id="g1">
    <path
       id="Selection #2"
       fill="none"
       stroke="#000000"
       stroke-width="1"
       d="m 0,172 c 0,0 6.88,24 6.88,24 0,0 12.17,38 12.17,38 17.44,47.55 37.01,90.21 64.38,133 24.68,38.57 54.52,73.35 87.57,104.96 0,0 18,15.48 18,15.48 0,0 12,10.36 12,10.36 5.03,4.03 13.16,9.6 17,14.2 0,0 -218,0 -218,0 z m 511,3 c 0,0 1,31 1,31 0,0 0,69 0,69 0,0 0,237 0,237 0,0 -153,0 -153,0 0,0 -44,0 -44,0 0,0 -21,-1 -21,-1 19,-11.89 46.86,-37.86 63,-54 0,0 17.83,-18 17.83,-18 30.11,-33.29 55.17,-70.6 76.48,-110 12.04,-22.26 23.1,-44.3 32.11,-68 8.65,-22.72 24.3,-62.73 27.58,-86 z"
       style="fill:#fab919;fill-opacity:1;stroke-width:0;stroke-dasharray:none" />
    <path
       id="Selection #1"
       fill="none"
       stroke="#000000"
       stroke-width="1"
       d="m 0,0 c 0,0 2,0 2,0 0,0 1,17 1,17 0,0 1.91,31 1.91,31 2.59,37.09 8.7,73.92 17.72,110 11.44,45.79 24.48,85.37 45.11,128 0,0 10.57,22 10.57,22 0,0 11.68,20 11.68,20 17.46,29.89 39.85,63.21 64,88 0,0 17.29,18.83 17.29,18.83 16.95,17.39 36.25,33.34 55.72,47.8 7.25,5.38 21.78,18.17 31,17 8.39,-1.06 22.84,-13.47 30,-18.75 16.64,-12.26 39.4,-31.36 53.72,-46.05 0,0 17.32,-18.83 17.32,-18.83 25.18,-26.34 44.08,-54.83 62.56,-86 31.88,-53.76 52.66,-108.54 67.77,-169 8.97,-35.85 15.14,-72.13 17.72,-109 0,0 1.91,-31 1.91,-31 0,0 1,-15 1,-15 0,0 0,-6 0,-6 0,0 2,0 2,0 0,0 0,161 0,161 -0.02,10.37 -3.49,20.06 -6.12,30 0,0 -17.46,55 -17.46,55 -20.74,55.47 -48.99,108.59 -84.55,156 0,0 -15.31,20 -15.31,20 0,0 -23.53,26 -23.53,26 0,0 -7.12,7.96 -7.12,7.96 0,0 -7.91,7.13 -7.91,7.13 0,0 -39,34.12 -39,34.12 -3.83,3 -16.2,13 -20,14.23 -2.06,0.67 -4.82,0.56 -7,0.56 0,0 -57,0 -57,0 -2.18,-0.04 -3.92,-0.03 -6,-0.85 -3.94,-1.55 -21.38,-15.69 -26,-19.27 -22.28,-17.26 -60.97,-57.23 -78.13,-79.88 0,0 -25.84,-35 -25.84,-35 C 61.53,333.74 37.84,283.26 20.31,234 20.31,234 5.13,184 5.13,184 2.85,174.93 0.01,166.42 0,157 Z m 26,0 c 0,0 461,0 461,0 0,0 -3.17,41 -3.17,41 0,0 -10.25,73 -10.25,73 -16.12,89.32 -47.42,172.95 -102.21,246 0,0 -23.21,29 -23.21,29 -19.18,21.48 -34.21,36.65 -56.16,55.42 -7.32,6.26 -19.04,16.86 -28,19.83 -15.36,5.09 -26.95,-5.94 -38,-15.17 C 201.3,428.46 176.17,404.08 156,379 86.74,292.9 50.39,197.64 34.73,89 34.73,89 27.91,32 27.91,32 27.91,32 27,22 27,22 Z m 250,114 c 0,0 0,-56 0,-56 -0.02,-8.64 -0.36,-8.98 -9,-9 0,0 -23,0 -23,0 -1.82,0.01 -4.92,-0.15 -6.4,1.02 -1.86,1.47 -1.58,4.85 -1.6,6.98 0,0 0,57 0,57 0,0 -62,0 -62,0 -3.65,0 -17.84,-0.95 -19.83,1.57 -1.42,1.81 -1.17,6.17 -1.17,8.43 0,0 0,22 0,22 0.01,1.82 -0.15,4.92 1.02,6.4 1.57,1.98 5.68,1.6 7.98,1.6 0,0 74,0 74,0 0,0 0,138 0,138 0,0 0,29 0,29 0,2.54 -0.44,9.55 1.02,11.4 1.57,1.98 5.68,1.6 7.98,1.6 0,0 24,0 24,0 2.35,-0.05 5.19,0.15 6.4,-2.31 0.88,-1.8 0.6,-9.3 0.6,-11.69 0,0 0,-28 0,-28 0,0 0,-138 0,-138 0,0 83,0 83,0 0,0 0,-31 0,-31 0,0 -1.02,-7.4 -1.02,-7.4 0,0 -7.98,-1.6 -7.98,-1.6 z"
       style="fill:#ffffff;stroke-width:0;stroke-dasharray:none" />
    <path
       id="Selection"
       fill="none"
       stroke="#000000"
       stroke-width="1"
       d="M 4.04,0 C 4.04,0 25,0 25,0 c 0,0 2.17,37 2.17,37 2.48,26.08 5.6,52.18 10.25,78 3.7,20.51 8.29,40.96 14.01,61 0,0 5.55,17 5.55,17 22.08,71.04 51.97,130.6 99.94,188 20.06,24 41.95,46.32 66.08,66.25 7.55,6.24 20.35,18.38 30,19.57 13.62,1.67 24.25,-9.62 34,-17.42 25.76,-20.62 47.62,-43.14 68.75,-68.4 C 422.63,301.06 461.53,201.36 477.42,99 481.85,70.5 487,28.39 487,0 c 0,0 21,0 21,0 0,89.09 -19.56,187.46 -55.86,269 0,0 -13.89,28 -13.89,28 0,0 -11.56,23 -11.56,23 -9.03,16.7 -27.81,45.74 -39.17,61 0,0 -21.25,26 -21.25,26 -11.61,13.61 -30.06,32.94 -43.27,44.83 0,0 -33,26.75 -33,26.75 -9.08,7.07 -23.13,19.99 -35,19.38 -9.53,-0.5 -25.25,-13.93 -33,-19.84 C 194.49,457.13 167.24,431.55 145.08,405 124.94,380.87 106.09,355.3 90.43,328 50.14,257.78 20.49,169.46 10.85,89 8.4,68.59 5.24,47.54 5,27 5,27 4.04,17 4.04,17 Z M 238,50 c 0,0 36,0 36,0 0,0 0,66 0,66 0,0 84,0 84,0 0,0 0,37 0,37 0,0 -84,0 -84,0 0,0 0,179 0,179 0,0 -36,0 -36,0 0,0 0,-179 0,-179 0,0 -84,0 -84,0 0,0 0,-37 0,-37 0,0 84,0 84,0 z"
       style="fill:#ff0000;stroke-width:0;stroke-dasharray:none" />
  </g>
</svg>
