<svg width="24" height="24" viewBox="0 0 24 24" fill="none" xmlns="http://www.w3.org/2000/svg">
<path d="M16.66 14.6472C18.447 13.4932 18.447 10.5072 16.66 9.35318L5.87 2.38518C4.135 1.26418 2 2.72418 2 5.03318V18.9672C2 21.2772 4.134 22.7362 5.87 21.6152L16.66 14.6472ZM22.75 5.00018C22.75 4.80127 22.671 4.6105 22.5303 4.46985C22.3897 4.3292 22.1989 4.25018 22 4.25018C21.8011 4.25018 21.6103 4.3292 21.4697 4.46985C21.329 4.6105 21.25 4.80127 21.25 5.00018V19.0002C21.25 19.1991 21.329 19.3899 21.4697 19.5305C21.6103 19.6712 21.8011 19.7502 22 19.7502C22.1989 19.7502 22.3897 19.6712 22.5303 19.5305C22.671 19.3899 22.75 19.1991 22.75 19.0002V5.00018Z"/>
</svg>
