<svg width="21" height="20" viewBox="0 0 21 20" fill="none" xmlns="http://www.w3.org/2000/svg">
<path fill-rule="evenodd" clip-rule="evenodd" d="M10.4526 1.04102H10.5476C12.4717 1.04102 13.9792 1.04102 15.1559 1.19935C16.3592 1.36102 17.3092 1.69935 18.0551 2.44435C18.8009 3.19018 19.1384 4.14018 19.3001 5.34435C19.4584 6.52018 19.4584 8.02768 19.4584 9.95185V10.0468C19.4584 11.971 19.4584 13.4785 19.3001 14.6552C19.1384 15.8585 18.8001 16.8085 18.0551 17.5543C17.3092 18.3002 16.3592 18.6377 15.1551 18.7993C13.9792 18.9577 12.4717 18.9577 10.5476 18.9577H10.4526C8.52841 18.9577 7.02091 18.9577 5.84425 18.7993C4.64091 18.6377 3.69091 18.2993 2.94508 17.5543C2.19925 16.8085 1.86175 15.8585 1.70008 14.6543C1.54175 13.4785 1.54175 11.971 1.54175 10.0468V9.95185C1.54175 8.02768 1.54175 6.52018 1.70008 5.34352C1.86175 4.14018 2.20008 3.19018 2.94508 2.44435C3.69091 1.69852 4.64091 1.36102 5.84508 1.19935C7.02091 1.04102 8.52841 1.04102 10.4526 1.04102ZM6.01091 2.43768C4.94591 2.58102 4.30341 2.85435 3.82925 3.32852C3.35425 3.80352 3.08175 4.44518 2.93841 5.51102C2.79341 6.59435 2.79175 8.01768 2.79175 9.99935C2.79175 11.981 2.79341 13.4043 2.93841 14.4877C3.08175 15.5535 3.35508 16.196 3.82925 16.671C4.30425 17.1452 4.94591 17.4177 6.01175 17.561C7.09508 17.706 8.51841 17.7077 10.5001 17.7077C12.4817 17.7077 13.9051 17.706 14.9884 17.561C16.0542 17.4177 16.6967 17.1443 17.1717 16.6702C17.6459 16.1952 17.9184 15.5535 18.0617 14.4877C18.2067 13.4043 18.2084 11.981 18.2084 9.99935C18.2084 8.01768 18.2067 6.59435 18.0617 5.51102C17.9184 4.44518 17.6451 3.80268 17.1709 3.32768C16.6959 2.85352 16.0542 2.58102 14.9884 2.43768C13.9051 2.29268 12.4817 2.29102 10.5001 2.29102C8.51841 2.29102 7.09425 2.29268 6.01091 2.43768ZM8.80841 7.05768C8.9256 6.94064 9.08446 6.8749 9.25008 6.8749C9.41571 6.8749 9.57456 6.94064 9.69175 7.05768L12.1917 9.55768C12.3088 9.67487 12.3745 9.83372 12.3745 9.99935C12.3745 10.165 12.3088 10.3238 12.1917 10.441L9.69175 12.941C9.63453 13.0024 9.56553 13.0517 9.48886 13.0858C9.4122 13.12 9.32944 13.1384 9.24552 13.1398C9.1616 13.1413 9.07824 13.1259 9.00042 13.0945C8.92259 13.063 8.8519 13.0162 8.79255 12.9569C8.7332 12.8975 8.68641 12.8268 8.65498 12.749C8.62354 12.6712 8.60811 12.5878 8.60959 12.5039C8.61107 12.42 8.62944 12.3372 8.6636 12.2606C8.69776 12.1839 8.74701 12.1149 8.80841 12.0577L10.8667 9.99935L8.80841 7.94102C8.69137 7.82383 8.62563 7.66497 8.62563 7.49935C8.62563 7.33372 8.69137 7.17487 8.80841 7.05768Z" fill="#FDFEFE"/>
</svg>
