<svg width="24" height="24" viewBox="0 0 24 24" fill="none" xmlns="http://www.w3.org/2000/svg">
<g id="solar:repeat-one-minimalistic-bold">
<path id="Vector" fill-rule="evenodd" clip-rule="evenodd" d="M8.71698 3.20258C8.84813 3.0722 9.02555 2.99902 9.21048 2.99902C9.39541 2.99902 9.57282 3.0722 9.70398 3.20258L11.564 5.04858C11.764 5.24658 11.824 5.54458 11.715 5.80258C11.6615 5.92929 11.572 6.03745 11.4574 6.11357C11.3429 6.18969 11.2085 6.23038 11.071 6.23058H9.21098C5.99798 6.22958 3.39498 8.81358 3.39498 11.9996C3.39498 15.1856 6.00098 17.7696 9.21098 17.7696H9.67498C10.061 17.7696 10.373 18.0796 10.373 18.4616C10.3726 18.5528 10.3542 18.6431 10.3189 18.7273C10.2836 18.8115 10.2321 18.8879 10.1673 18.9521C10.1025 19.0164 10.0256 19.0673 9.94117 19.1018C9.8567 19.1364 9.76625 19.154 9.67498 19.1536H9.21098C5.22898 19.1536 2.00098 15.9496 2.00098 11.9996C2.00098 8.04958 5.22898 4.84558 9.21098 4.84558H9.38598L8.71698 4.18158C8.65227 4.11743 8.60092 4.0411 8.56587 3.957C8.53082 3.8729 8.51277 3.78269 8.51277 3.69158C8.51277 3.60047 8.53082 3.51026 8.56587 3.42615C8.60092 3.34205 8.65227 3.26573 8.71698 3.20158M13.629 5.53758C13.629 5.15558 13.941 4.84558 14.327 4.84558H14.792C18.773 4.84558 22.001 8.04958 22.001 11.9996C22.001 15.9496 18.773 19.1536 14.791 19.1536H14.616L15.285 19.8176C15.3497 19.8817 15.401 19.9581 15.4361 20.0422C15.4711 20.1263 15.4892 20.2165 15.4892 20.3076C15.4892 20.3987 15.4711 20.4889 15.4361 20.573C15.401 20.6571 15.3497 20.7334 15.285 20.7976C15.1538 20.928 14.9764 21.0011 14.7915 21.0011C14.6065 21.0011 14.4291 20.928 14.298 20.7976L12.438 18.9506C12.3408 18.8541 12.2746 18.7308 12.2477 18.5966C12.2208 18.4623 12.2345 18.3231 12.287 18.1966C12.3404 18.0699 12.43 17.9617 12.5445 17.8856C12.659 17.8095 12.7935 17.7688 12.931 17.7686H14.791C18.003 17.7686 20.606 15.1856 20.606 11.9996C20.606 8.81358 18.003 6.22958 14.792 6.22958H14.327C14.2357 6.22997 14.1453 6.21239 14.0608 6.17782C13.9763 6.14326 13.8995 6.0924 13.8347 6.02814C13.7698 5.96388 13.7183 5.88749 13.683 5.80332C13.6477 5.71915 13.6294 5.62885 13.629 5.53758Z" fill="#EDA145"/>
<path id="Vector_2" d="M5.48828 12.0006C5.48828 9.96059 7.15428 8.30859 9.20928 8.30859H14.7913C16.8463 8.30859 18.5113 9.96159 18.5113 12.0006C18.5113 14.0396 16.8463 15.6926 14.7913 15.6926H9.20928C7.15428 15.6926 5.48828 14.0396 5.48828 12.0006Z" fill="#EDA145"/>
</g>
</svg>
