<svg width="60" height="60" viewBox="0 0 60 60" fill="none" xmlns="http://www.w3.org/2000/svg">
<path fill-rule="evenodd" clip-rule="evenodd" d="M30 55C43.8075 55 55 43.8075 55 30C55 16.1925 43.8075 5 30 5C16.1925 5 5 16.1925 5 30C5 43.8075 16.1925 55 30 55ZM20.19 21.5425C20 22.0025 20 22.585 20 23.75V36.25C20 37.415 20 37.9975 20.19 38.4575C20.4443 39.0688 20.9307 39.5544 21.5425 39.8075C22.0025 40 22.585 40 23.75 40C24.915 40 25.4975 40 25.9575 39.81C26.5688 39.5557 27.0544 39.0693 27.3075 38.4575C27.5 37.9975 27.5 37.415 27.5 36.25V23.75C27.5 22.585 27.5 22.0025 27.31 21.5425C27.0557 20.9312 26.5693 20.4456 25.9575 20.1925C25.4975 20 24.915 20 23.75 20C22.585 20 22.0025 20 21.5425 20.19C20.9312 20.4443 20.4431 20.9307 20.19 21.5425ZM32.6925 21.5425C32.5 22.0025 32.5 22.585 32.5 23.75V36.25C32.5 37.415 32.5 37.9975 32.69 38.4575C32.9443 39.0688 33.4307 39.5544 34.0425 39.8075C34.5025 40 35.085 40 36.25 40C37.415 40 37.9975 40 38.4575 39.81C39.0688 39.5557 39.5544 39.0693 39.8075 38.4575C40 37.9975 40 37.415 40 36.25V23.75C40 22.585 40 22.0025 39.81 21.5425C39.5557 20.9312 39.0693 20.4456 38.4575 20.1925C37.9975 20 37.415 20 36.25 20C35.085 20 34.5025 20 34.0425 20.19C33.4312 20.4443 32.9456 20.9307 32.6925 21.5425Z"/>
</svg>
