<svg width="24" height="24" viewBox="0 0 24 24" fill="none" xmlns="http://www.w3.org/2000/svg">
<path d="M2 2H22M9 10.5L10.293 9.207C10.626 8.874 10.793 8.707 11 8.707C11.207 8.707 11.374 8.874 11.707 9.207L12.293 9.793C12.626 10.126 12.793 10.293 13 10.293C13.207 10.293 13.374 10.126 13.707 9.793L15 8.5M12 21V17M12 21L10 22M12 21L14 22" stroke-width="1.5" stroke-linecap="round"/>
<path d="M20 2V10.5C20 13.564 20 15.096 18.996 16.048C17.992 17 16.376 17 13.143 17H10.857C7.625 17 6.008 17 5.004 16.048C4 15.096 4 13.564 4 10.5V2" stroke-width="1.5"/>
</svg>
