<svg width="24" height="24" viewBox="0 0 24 24" fill="none" xmlns="http://www.w3.org/2000/svg">
<path d="M8.09 14.6472C6.303 13.4932 6.303 10.5072 8.09 9.35318L18.88 2.38518C20.616 1.26418 22.75 2.72418 22.75 5.03318V18.9672C22.75 21.2772 20.616 22.7362 18.88 21.6152L8.09 14.6472ZM2 5.00018C2 4.80127 2.07902 4.6105 2.21967 4.46985C2.36032 4.3292 2.55109 4.25018 2.75 4.25018C2.94891 4.25018 3.13968 4.3292 3.28033 4.46985C3.42098 4.6105 3.5 4.80127 3.5 5.00018V19.0002C3.5 19.1991 3.42098 19.3899 3.28033 19.5305C3.13968 19.6712 2.94891 19.7502 2.75 19.7502C2.55109 19.7502 2.36032 19.6712 2.21967 19.5305C2.07902 19.3899 2 19.1991 2 19.0002V5.00018Z"/>
</svg>
