<svg width="16" height="17" viewBox="0 0 16 17" fill="none" xmlns="http://www.w3.org/2000/svg">
<path d="M14 4.5H2M14 7.16667H2M7.33333 9.83333H2M7.33333 12.5H2" stroke="#5F7392" stroke-linecap="round"/>
<path d="M12.5833 9.91174C13.6859 10.5484 14.2366 10.8671 14.3179 11.3257C14.3382 11.4406 14.3382 11.5582 14.3179 11.6731C14.2373 12.1331 13.6859 12.4511 12.5833 13.0871C11.4806 13.7237 10.9299 14.0424 10.4913 13.8831C10.3816 13.8431 10.2799 13.7842 10.1906 13.7091C9.83325 13.4091 9.83325 12.7731 9.83325 11.4997C9.83325 10.2264 9.83325 9.58974 10.1906 9.2904C10.2799 9.21554 10.3817 9.15688 10.4913 9.11707C10.9293 8.95707 11.4806 9.27574 12.5833 9.91174Z" stroke="#5F7392"/>
</svg>
