<svg width="24" height="24" viewBox="0 0 24 24" fill="none" xmlns="http://www.w3.org/2000/svg">
<path d="M21 6H3M21 10H3M11 14H3M11 18H3" stroke-width="1.5" stroke-linecap="round"/>
<path d="M18.875 14.1176C20.529 15.0726 21.355 15.5506 21.477 16.2386C21.5074 16.4109 21.5074 16.5873 21.477 16.7596C21.356 17.4496 20.529 17.9266 18.875 18.8806C17.221 19.8356 16.395 20.3136 15.737 20.0746C15.5726 20.0146 15.42 19.9263 15.286 19.8136C14.75 19.3636 14.75 18.4096 14.75 16.4996C14.75 14.5896 14.75 13.6346 15.286 13.1856C15.42 13.0733 15.5727 12.9853 15.737 12.9256C16.394 12.6856 17.221 13.1636 18.875 14.1176Z" stroke-width="1.5"/>
</svg>
