<svg width="24" height="24" viewBox="0 0 24 24" fill="none" xmlns="http://www.w3.org/2000/svg">
<path fill-rule="evenodd" clip-rule="evenodd" d="M8.47 2.47032C8.61063 2.32987 8.80125 2.25098 9 2.25098C9.19875 2.25098 9.38937 2.32987 9.53 2.47032L11.53 4.47032C11.6348 4.5752 11.7061 4.70878 11.735 4.85418C11.7638 4.99958 11.749 5.15028 11.6923 5.28724C11.6356 5.4242 11.5395 5.54129 11.4163 5.62371C11.2931 5.70613 11.1482 5.75019 11 5.75032H9C7.3424 5.75032 5.75269 6.4088 4.58058 7.5809C3.40848 8.753 2.75 10.3427 2.75 12.0003C2.75 13.6579 3.40848 15.2476 4.58058 16.4197C5.75269 17.5918 7.3424 18.2503 9 18.2503H9.5C9.69891 18.2503 9.88968 18.3293 10.0303 18.47C10.171 18.6106 10.25 18.8014 10.25 19.0003C10.25 19.1992 10.171 19.39 10.0303 19.5306C9.88968 19.6713 9.69891 19.7503 9.5 19.7503H9C6.94457 19.7503 4.97333 18.9338 3.51992 17.4804C2.06652 16.027 1.25 14.0557 1.25 12.0003C1.25 9.94489 2.06652 7.97365 3.51992 6.52024C4.97333 5.06683 6.94457 4.25032 9 4.25032H9.19L8.47 3.53032C8.32955 3.38969 8.25066 3.19907 8.25066 3.00032C8.25066 2.80157 8.32955 2.61094 8.47 2.47032ZM13.75 5.00032C13.75 4.8014 13.829 4.61064 13.9697 4.46999C14.1103 4.32933 14.3011 4.25032 14.5 4.25032H15C17.0554 4.25032 19.0267 5.06683 20.4801 6.52024C21.9335 7.97365 22.75 9.94489 22.75 12.0003C22.75 14.0557 21.9335 16.027 20.4801 17.4804C19.0267 18.9338 17.0554 19.7503 15 19.7503H14.81L15.53 20.4703C15.6037 20.539 15.6628 20.6218 15.7038 20.7138C15.7448 20.8058 15.7668 20.9051 15.7686 21.0058C15.7704 21.1065 15.7518 21.2065 15.7141 21.2999C15.6764 21.3933 15.6203 21.4781 15.549 21.5494C15.4778 21.6206 15.393 21.6767 15.2996 21.7144C15.2062 21.7522 15.1062 21.7707 15.0055 21.7689C14.9048 21.7671 14.8055 21.7451 14.7135 21.7041C14.6215 21.6631 14.5387 21.604 14.47 21.5303L12.47 19.5303C12.3652 19.4254 12.2939 19.2919 12.265 19.1465C12.2362 19.0011 12.251 18.8504 12.3077 18.7134C12.3644 18.5764 12.4605 18.4593 12.5837 18.3769C12.7069 18.2945 12.8518 18.2504 13 18.2503H15C16.6576 18.2503 18.2473 17.5918 19.4194 16.4197C20.5915 15.2476 21.25 13.6579 21.25 12.0003C21.25 10.3427 20.5915 8.753 19.4194 7.5809C18.2473 6.4088 16.6576 5.75032 15 5.75032H14.5C14.3011 5.75032 14.1103 5.6713 13.9697 5.53065C13.829 5.38999 13.75 5.19923 13.75 5.00032ZM12.287 9.30732C12.4241 9.36409 12.5412 9.46023 12.6236 9.58358C12.706 9.70694 12.75 9.85196 12.75 10.0003V14.0003C12.75 14.1992 12.671 14.39 12.5303 14.5306C12.3897 14.6713 12.1989 14.7503 12 14.7503C11.8011 14.7503 11.6103 14.6713 11.4697 14.5306C11.329 14.39 11.25 14.1992 11.25 14.0003V11.8103L11.03 12.0303C10.9613 12.104 10.8785 12.1631 10.7865 12.2041C10.6945 12.2451 10.5952 12.2671 10.4945 12.2689C10.3938 12.2707 10.2938 12.2522 10.2004 12.2144C10.107 12.1767 10.0222 12.1206 9.95096 12.0494C9.87974 11.9781 9.8236 11.8933 9.78588 11.7999C9.74816 11.7065 9.72963 11.6065 9.73141 11.5058C9.73318 11.4051 9.75523 11.3058 9.79622 11.2138C9.83721 11.1218 9.89631 11.039 9.97 10.9703L11.47 9.47032C11.5748 9.36543 11.7084 9.29396 11.8538 9.26495C11.9992 9.23593 12.15 9.25068 12.287 9.30732Z" fill="#E94976"/>
</svg>
