<svg width="16" height="16" viewBox="0 0 16 16" fill="none" xmlns="http://www.w3.org/2000/svg">
<path d="M1.33301 8.00008C1.33301 5.48608 1.33301 4.22875 2.11434 3.44808C2.89567 2.66741 4.15234 2.66675 6.66634 2.66675H9.33301C11.847 2.66675 13.1043 2.66675 13.885 3.44808C14.6657 4.22941 14.6663 5.48608 14.6663 8.00008V9.33341C14.6663 11.8474 14.6663 13.1047 13.885 13.8854C13.1037 14.6661 11.847 14.6667 9.33301 14.6667H6.66634C4.15234 14.6667 2.89501 14.6667 2.11434 13.8854C1.33367 13.1041 1.33301 11.8474 1.33301 9.33341V8.00008Z" stroke="#FDFEFE"/>
<path d="M4.6665 2.66675V1.66675M11.3332 2.66675V1.66675M1.6665 6.00008H14.3332" stroke="#FDFEFE" stroke-linecap="round"/>
<path d="M11.9995 11.3336C11.9995 11.5104 11.9293 11.68 11.8043 11.805C11.6792 11.93 11.5097 12.0002 11.3328 12.0002C11.156 12.0002 10.9865 11.93 10.8614 11.805C10.7364 11.68 10.6662 11.5104 10.6662 11.3336C10.6662 11.1568 10.7364 10.9872 10.8614 10.8622C10.9865 10.7371 11.156 10.6669 11.3328 10.6669C11.5097 10.6669 11.6792 10.7371 11.8043 10.8622C11.9293 10.9872 11.9995 11.1568 11.9995 11.3336ZM11.9995 8.66691C11.9995 8.84372 11.9293 9.01329 11.8043 9.13832C11.6792 9.26334 11.5097 9.33358 11.3328 9.33358C11.156 9.33358 10.9865 9.26334 10.8614 9.13832C10.7364 9.01329 10.6662 8.84372 10.6662 8.66691C10.6662 8.4901 10.7364 8.32053 10.8614 8.19551C10.9865 8.07048 11.156 8.00024 11.3328 8.00024C11.5097 8.00024 11.6792 8.07048 11.8043 8.19551C11.9293 8.32053 11.9995 8.4901 11.9995 8.66691ZM8.66618 11.3336C8.66618 11.5104 8.59594 11.68 8.47092 11.805C8.34589 11.93 8.17632 12.0002 7.99951 12.0002C7.8227 12.0002 7.65313 11.93 7.52811 11.805C7.40308 11.68 7.33285 11.5104 7.33285 11.3336C7.33285 11.1568 7.40308 10.9872 7.52811 10.8622C7.65313 10.7371 7.8227 10.6669 7.99951 10.6669C8.17632 10.6669 8.34589 10.7371 8.47092 10.8622C8.59594 10.9872 8.66618 11.1568 8.66618 11.3336ZM8.66618 8.66691C8.66618 8.84372 8.59594 9.01329 8.47092 9.13832C8.34589 9.26334 8.17632 9.33358 7.99951 9.33358C7.8227 9.33358 7.65313 9.26334 7.52811 9.13832C7.40308 9.01329 7.33285 8.84372 7.33285 8.66691C7.33285 8.4901 7.40308 8.32053 7.52811 8.19551C7.65313 8.07048 7.8227 8.00024 7.99951 8.00024C8.17632 8.00024 8.34589 8.07048 8.47092 8.19551C8.59594 8.32053 8.66618 8.4901 8.66618 8.66691ZM5.33285 11.3336C5.33285 11.5104 5.26261 11.68 5.13758 11.805C5.01256 11.93 4.84299 12.0002 4.66618 12.0002C4.48937 12.0002 4.3198 11.93 4.19477 11.805C4.06975 11.68 3.99951 11.5104 3.99951 11.3336C3.99951 11.1568 4.06975 10.9872 4.19477 10.8622C4.3198 10.7371 4.48937 10.6669 4.66618 10.6669C4.84299 10.6669 5.01256 10.7371 5.13758 10.8622C5.26261 10.9872 5.33285 11.1568 5.33285 11.3336ZM5.33285 8.66691C5.33285 8.84372 5.26261 9.01329 5.13758 9.13832C5.01256 9.26334 4.84299 9.33358 4.66618 9.33358C4.48937 9.33358 4.3198 9.26334 4.19477 9.13832C4.06975 9.01329 3.99951 8.84372 3.99951 8.66691C3.99951 8.4901 4.06975 8.32053 4.19477 8.19551C4.3198 8.07048 4.48937 8.00024 4.66618 8.00024C4.84299 8.00024 5.01256 8.07048 5.13758 8.19551C5.26261 8.32053 5.33285 8.4901 5.33285 8.66691Z" fill="#FDFEFE"/>
</svg>
