<svg width="20" height="20" viewBox="0 0 20 20" fill="none" xmlns="http://www.w3.org/2000/svg">
<path d="M8.50007 14.5C7.31337 14.5 6.15332 14.1481 5.16661 13.4888C4.17991 12.8295 3.41086 11.8925 2.95673 10.7961C2.5026 9.69974 2.38378 8.49334 2.61529 7.32946C2.84681 6.16557 3.41826 5.09648 4.25738 4.25736C5.09651 3.41825 6.16562 2.8468 7.32952 2.61529C8.49342 2.38378 9.69983 2.5026 10.7962 2.95673C11.8926 3.41085 12.8297 4.17989 13.4889 5.16658C14.1482 6.15327 14.5001 7.31331 14.5001 8.5C14.4984 10.0907 13.8656 11.6158 12.7408 12.7407C11.6159 13.8655 10.0908 14.4982 8.50007 14.5ZM8.50007 4C7.61005 4 6.74001 4.26392 5.99998 4.75839C5.25995 5.25285 4.68316 5.95566 4.34257 6.77793C4.00197 7.60019 3.91285 8.50499 4.08649 9.37791C4.26012 10.2508 4.68871 11.0526 5.31805 11.682C5.9474 12.3113 6.74923 12.7399 7.62216 12.9135C8.49508 13.0872 9.39989 12.998 10.2222 12.6575C11.0444 12.3169 11.7473 11.7401 12.2417 11.0001C12.7362 10.26 13.0001 9.39002 13.0001 8.5C12.9989 7.30689 12.5244 6.16299 11.6808 5.31934C10.8371 4.47568 9.69319 4.00119 8.50007 4Z" fill="#FDFEFE"/>
<path d="M16.7502 17.5C16.5513 17.5 16.3605 17.4209 16.2199 17.2803L13.2199 14.2803C13.0832 14.1388 13.0076 13.9493 13.0094 13.7527C13.0111 13.5561 13.0899 13.3679 13.229 13.2289C13.3681 13.0898 13.5562 13.011 13.7528 13.0092C13.9495 13.0075 14.1389 13.0831 14.2804 13.2198L17.2804 16.2198C17.3853 16.3246 17.4567 16.4583 17.4856 16.6037C17.5145 16.7492 17.4997 16.9 17.4429 17.037C17.3862 17.174 17.2901 17.2911 17.1667 17.3736C17.0434 17.456 16.8985 17.5 16.7502 17.5Z" fill="#FDFEFE"/>
</svg>
