<svg width="20" height="20" viewBox="0 0 20 20" fill="none" xmlns="http://www.w3.org/2000/svg">
<path fill-rule="evenodd" clip-rule="evenodd" d="M15.1201 3.02369C14.1451 3.19786 12.8301 3.63453 10.9859 4.24869L6.80841 5.64036C5.32507 6.13536 4.25091 6.49453 3.49174 6.81703C2.69841 7.15453 2.41674 7.38953 2.32507 7.54703C2.18664 7.78578 2.11373 8.05687 2.11373 8.33286C2.11373 8.60885 2.18664 8.87994 2.32507 9.11869C2.41674 9.27619 2.69841 9.51119 3.49174 9.84869C4.25091 10.1712 5.32507 10.5304 6.80841 11.0245L6.87841 11.0479C7.28341 11.1829 7.59841 11.287 7.86924 11.4687C8.13007 11.6437 8.35424 11.8679 8.52924 12.1287C8.71091 12.3995 8.81507 12.7145 8.95007 13.1204L8.97341 13.1895C9.46757 14.6729 9.82674 15.747 10.1484 16.5062C10.4867 17.2995 10.7217 17.5812 10.8792 17.6729C11.118 17.8113 11.3891 17.8842 11.6651 17.8842C11.9411 17.8842 12.2121 17.8113 12.4509 17.6729C12.6084 17.5812 12.8434 17.2995 13.1809 16.5062C13.5034 15.747 13.8626 14.6729 14.3567 13.1895L15.7484 9.01286C16.3634 7.16869 16.8001 5.85453 16.9734 4.87953C17.1484 3.89953 17.0151 3.48286 16.7651 3.23286C16.5151 2.98286 16.0984 2.84953 15.1192 3.02453M14.8942 1.76453C15.9801 1.57119 16.9576 1.61536 17.6701 2.32869C18.3834 3.04119 18.4276 4.01869 18.2342 5.10369C18.0426 6.18286 17.5742 7.58703 16.9817 9.36369L15.5609 13.6262C15.0792 15.072 14.7051 16.1954 14.3592 17.0079C14.0259 17.7912 13.6559 18.4545 13.0942 18.7812C12.6603 19.0337 12.1672 19.1667 11.6651 19.1667C11.163 19.1667 10.6699 19.0337 10.2359 18.7812C9.67424 18.4545 9.30424 17.7912 8.97091 17.0079C8.62507 16.1954 8.25091 15.072 7.76841 13.6262L7.75841 13.5945C7.58924 13.0887 7.53841 12.9512 7.46507 12.842C7.38259 12.7208 7.27798 12.6162 7.15674 12.5337C7.04841 12.4604 6.91007 12.4087 6.40341 12.2404L6.37257 12.2304C4.92674 11.7479 3.80341 11.3737 2.99091 11.0279C2.20757 10.6945 1.54424 10.3245 1.21757 9.76286C0.965058 9.3289 0.832031 8.83578 0.832031 8.33369C0.832031 7.83161 0.965058 7.33849 1.21757 6.90453C1.54424 6.34286 2.20757 5.97286 2.99091 5.63953C3.80341 5.29369 4.92674 4.91953 6.37341 4.43786L10.6351 3.01703C12.4126 2.42453 13.8159 1.95619 14.8951 1.76453M14.7342 5.27036C14.8534 5.39129 14.9198 5.55453 14.9189 5.72431C14.9179 5.8941 14.8497 6.05659 14.7292 6.17619L11.3142 9.55286C11.193 9.66954 11.0308 9.73379 10.8625 9.73172C10.6943 9.72966 10.5337 9.66143 10.4154 9.54181C10.2971 9.42219 10.2306 9.2608 10.2304 9.09257C10.2302 8.92433 10.2962 8.76277 10.4142 8.64286L13.8284 5.26536C13.9493 5.14618 14.1126 5.07979 14.2824 5.08073C14.4521 5.08166 14.6146 5.14985 14.7342 5.27036Z" fill="#FDFEFE"/>
</svg>
