<svg width="32" height="32" viewBox="0 0 32 32" fill="none" xmlns="http://www.w3.org/2000/svg">
<path d="M12.0007 16.0003C12.0007 16.8844 11.6495 17.7322 11.0243 18.3573C10.3992 18.9825 9.55137 19.3337 8.66732 19.3337C7.78326 19.3337 6.93542 18.9825 6.3103 18.3573C5.68517 17.7322 5.33398 16.8844 5.33398 16.0003C5.33398 15.1163 5.68517 14.2684 6.3103 13.6433C6.93542 13.0182 7.78326 12.667 8.66732 12.667C9.55137 12.667 10.3992 13.0182 11.0243 13.6433C11.6495 14.2684 12.0007 15.1163 12.0007 16.0003Z" stroke-width="2"/>
<path d="M18.6676 8.66699L12.001 13.3337M18.6676 23.3337L12.001 18.667" stroke-width="2" stroke-linecap="round"/>
<path d="M25.3337 24.6667C25.3337 25.5507 24.9825 26.3986 24.3573 27.0237C23.7322 27.6488 22.8844 28 22.0003 28C21.1163 28 20.2684 27.6488 19.6433 27.0237C19.0182 26.3986 18.667 25.5507 18.667 24.6667C18.667 23.7826 19.0182 22.9348 19.6433 22.3096C20.2684 21.6845 21.1163 21.3333 22.0003 21.3333C22.8844 21.3333 23.7322 21.6845 24.3573 22.3096C24.9825 22.9348 25.3337 23.7826 25.3337 24.6667ZM25.3337 7.33333C25.3337 8.21739 24.9825 9.06523 24.3573 9.69036C23.7322 10.3155 22.8844 10.6667 22.0003 10.6667C21.1163 10.6667 20.2684 10.3155 19.6433 9.69036C19.0182 9.06523 18.667 8.21739 18.667 7.33333C18.667 6.44928 19.0182 5.60143 19.6433 4.97631C20.2684 4.35119 21.1163 4 22.0003 4C22.8844 4 23.7322 4.35119 24.3573 4.97631C24.9825 5.60143 25.3337 6.44928 25.3337 7.33333Z" stroke-width="2"/>
</svg>
