<svg width="16" height="17" viewBox="0 0 16 17" fill="none" xmlns="http://www.w3.org/2000/svg">
<path d="M5.99984 8.50065C5.99984 8.94268 5.82424 9.3666 5.51168 9.67916C5.19912 9.99172 4.7752 10.1673 4.33317 10.1673C3.89114 10.1673 3.46722 9.99172 3.15466 9.67916C2.8421 9.3666 2.6665 8.94268 2.6665 8.50065C2.6665 8.05862 2.8421 7.6347 3.15466 7.32214C3.46722 7.00958 3.89114 6.83398 4.33317 6.83398C4.7752 6.83398 5.19912 7.00958 5.51168 7.32214C5.82424 7.6347 5.99984 8.05862 5.99984 8.50065Z" stroke="#5F7392"/>
<path d="M9.33309 4.83398L5.99976 7.16732M9.33309 12.1673L5.99976 9.83398" stroke="#5F7392" stroke-linecap="round"/>
<path d="M12.6666 12.8333C12.6666 13.2754 12.491 13.6993 12.1784 14.0118C11.8659 14.3244 11.4419 14.5 10.9999 14.5C10.5579 14.5 10.134 14.3244 9.82141 14.0118C9.50885 13.6993 9.33325 13.2754 9.33325 12.8333C9.33325 12.3913 9.50885 11.9674 9.82141 11.6548C10.134 11.3423 10.5579 11.1667 10.9999 11.1667C11.4419 11.1667 11.8659 11.3423 12.1784 11.6548C12.491 11.9674 12.6666 12.3913 12.6666 12.8333ZM12.6666 4.16667C12.6666 4.60869 12.491 5.03262 12.1784 5.34518C11.8659 5.65774 11.4419 5.83333 10.9999 5.83333C10.5579 5.83333 10.134 5.65774 9.82141 5.34518C9.50885 5.03262 9.33325 4.60869 9.33325 4.16667C9.33325 3.72464 9.50885 3.30072 9.82141 2.98816C10.134 2.67559 10.5579 2.5 10.9999 2.5C11.4419 2.5 11.8659 2.67559 12.1784 2.98816C12.491 3.30072 12.6666 3.72464 12.6666 4.16667Z" stroke="#5F7392"/>
</svg>
