<svg width="16" height="16" viewBox="0 0 16 16" fill="none" xmlns="http://www.w3.org/2000/svg">
<g clip-path="url(#clip0_774_7105)">
<path d="M8 11.3334V6.66675M8 6.66675L10 8.66675M8 6.66675L6 8.66675" stroke="#C9184A" stroke-linecap="round" stroke-linejoin="round"/>
<path d="M10.6668 4.66675H5.3335" stroke="#C9184A" stroke-linecap="round"/>
<path d="M1.3335 8.00016C1.3335 4.8575 1.3335 3.28616 2.3095 2.3095C3.28683 1.3335 4.8575 1.3335 8.00016 1.3335C11.1428 1.3335 12.7142 1.3335 13.6902 2.3095C14.6668 3.28683 14.6668 4.8575 14.6668 8.00016C14.6668 11.1428 14.6668 12.7142 13.6902 13.6902C12.7148 14.6668 11.1428 14.6668 8.00016 14.6668C4.8575 14.6668 3.28616 14.6668 2.3095 13.6902C1.3335 12.7148 1.3335 11.1428 1.3335 8.00016Z" stroke="#C9184A"/>
</g>
<defs>
<clipPath id="clip0_774_7105">
<rect width="16" height="16" fill="white"/>
</clipPath>
</defs>
</svg>
