<svg width="16" height="16" viewBox="0 0 16 16" fill="none" xmlns="http://www.w3.org/2000/svg">
<g clip-path="url(#clip0_774_7097)">
<path d="M5.66667 11.3332V6.6665M5.66667 6.6665L7.33333 8.6665M5.66667 6.6665L4 8.6665M10.3333 11.3332V6.6665M10.3333 6.6665L12 8.6665M10.3333 6.6665L8.66667 8.6665" stroke="#FDFEFE" stroke-linecap="round" stroke-linejoin="round"/>
<path d="M12 4.6665H4" stroke="#FDFEFE" stroke-linecap="round"/>
<path d="M1.3335 7.99992C1.3335 4.85725 1.3335 3.28592 2.3095 2.30925C3.28683 1.33325 4.8575 1.33325 8.00016 1.33325C11.1428 1.33325 12.7142 1.33325 13.6902 2.30925C14.6668 3.28659 14.6668 4.85725 14.6668 7.99992C14.6668 11.1426 14.6668 12.7139 13.6902 13.6899C12.7148 14.6666 11.1428 14.6666 8.00016 14.6666C4.8575 14.6666 3.28616 14.6666 2.3095 13.6899C1.3335 12.7146 1.3335 11.1426 1.3335 7.99992Z" stroke="#FDFEFE"/>
</g>
<defs>
<clipPath id="clip0_774_7097">
<rect width="16" height="16" fill="white"/>
</clipPath>
</defs>
</svg>
