<svg width="16" height="17" viewBox="0 0 16 17" fill="none" xmlns="http://www.w3.org/2000/svg">
<path fill-rule="evenodd" clip-rule="evenodd" d="M7.96192 1.33301H8.03792C9.57725 1.33301 10.7833 1.33301 11.7246 1.45967C12.6873 1.58901 13.4473 1.85967 14.0439 2.45567C14.6406 3.05234 14.9106 3.81234 15.0399 4.77567C15.1666 5.71634 15.1666 6.92234 15.1666 8.46167V8.53767C15.1666 10.077 15.1666 11.283 15.0399 12.2243C14.9106 13.187 14.6399 13.947 14.0439 14.5437C13.4473 15.1403 12.6873 15.4103 11.7239 15.5397C10.7833 15.6663 9.57725 15.6663 8.03792 15.6663H7.96192C6.42259 15.6663 5.21659 15.6663 4.27525 15.5397C3.31259 15.4103 2.55259 15.1397 1.95592 14.5437C1.35925 13.947 1.08925 13.187 0.959919 12.2237C0.833252 11.283 0.833252 10.077 0.833252 8.53767V8.46167C0.833252 6.92234 0.833252 5.71634 0.959919 4.77501C1.08925 3.81234 1.35992 3.05234 1.95592 2.45567C2.55259 1.85901 3.31259 1.58901 4.27592 1.45967C5.21659 1.33301 6.42259 1.33301 7.96192 1.33301ZM4.40859 2.45034C3.55659 2.56501 3.04259 2.78367 2.66325 3.16301C2.28325 3.54301 2.06525 4.05634 1.95059 4.90901C1.93281 5.04323 1.91725 5.18456 1.90392 5.33301H4.39192L6.29592 2.34101C5.54459 2.35234 4.92725 2.38101 4.40859 2.45034ZM7.47192 2.33301C7.4584 2.36835 7.44189 2.40247 7.42259 2.43501L5.57725 5.33301H8.72525L10.6119 2.36767C9.90458 2.33301 9.05058 2.33301 7.99992 2.33301H7.47192ZM11.7326 2.47101L9.91058 5.33301H14.0953C14.0824 5.18456 14.0668 5.04323 14.0486 4.90901C13.9346 4.05634 13.7166 3.54234 13.3366 3.16234C12.9786 2.80434 12.5006 2.59034 11.7319 2.47101M14.1486 6.33301H1.85125C1.83555 7.05512 1.82955 7.7774 1.83325 8.49967C1.83325 10.085 1.83459 11.2237 1.95059 12.0903C2.06525 12.943 2.28392 13.457 2.66325 13.837C3.04325 14.2163 3.55659 14.4343 4.40925 14.549C5.27592 14.665 6.41459 14.6663 7.99992 14.6663C9.58525 14.6663 10.7239 14.665 11.5906 14.549C12.4433 14.4343 12.9573 14.2157 13.3373 13.8363C13.7166 13.4563 13.9346 12.943 14.0493 12.0903C14.1653 11.2237 14.1666 10.085 14.1666 8.49967C14.1666 7.66101 14.1666 6.94767 14.1486 6.33301ZM8.91192 8.44701L8.97992 8.49101C9.39325 8.75767 9.75058 8.98834 9.99992 9.20901C10.2653 9.44367 10.4999 9.74567 10.4999 10.1663C10.4999 10.587 10.2653 10.889 9.99992 11.1237C9.75058 11.3443 9.39325 11.575 8.97992 11.8417L8.91192 11.8857C8.49459 12.155 8.13192 12.389 7.83059 12.523C7.51725 12.6623 7.11525 12.7623 6.73192 12.519C6.36925 12.2883 6.25858 11.8943 6.21258 11.5477C6.16592 11.2017 6.16658 10.7443 6.16658 10.203V10.1297C6.16658 9.58834 6.16658 9.13101 6.21325 8.78501C6.25858 8.43834 6.36925 8.04501 6.73192 7.81367C7.11525 7.57034 7.51725 7.67101 7.83059 7.80967C8.13192 7.94367 8.49459 8.17767 8.91192 8.44701ZM7.23858 8.66701H7.24925C7.24214 8.66834 7.23858 8.66834 7.23858 8.66701ZM7.26525 8.66834C7.29192 8.67301 7.34125 8.68701 7.42525 8.72367C7.64525 8.82167 7.94192 9.01167 8.40525 9.31034C8.86058 9.60367 9.15192 9.79367 9.33792 9.95767C9.50858 10.109 9.50058 10.1617 9.49992 10.1663C9.50058 10.1703 9.50858 10.2237 9.33792 10.375C9.15259 10.539 8.86059 10.7283 8.40458 11.023C7.94192 11.321 7.64592 11.511 7.42458 11.609C7.34125 11.6457 7.29125 11.6597 7.26459 11.6643C7.24992 11.6357 7.22458 11.567 7.20392 11.4157C7.16792 11.1437 7.16658 10.7543 7.16658 10.1663C7.16658 9.57834 7.16792 9.18901 7.20392 8.91701C7.22392 8.76567 7.25058 8.69701 7.26525 8.66834ZM7.23792 11.665L7.24859 11.6663C7.24058 11.6663 7.23703 11.6659 7.23792 11.665Z" fill="#5F7392"/>
</svg>
